<svg height="511.999pt" viewBox="1 1 511.999 511.999" width="511.999pt" xmlns="http://www.w3.org/2000/svg"><path d="m325 164.339844h-138c-8.285156 0-15-6.714844-15-15v-80.339844c0-33.910156 27.589844-61.5 61.5-61.5h45c33.910156 0 61.5 27.589844 61.5 61.5v80.339844c0 8.285156-6.714844 15-15 15zm-123-30h108v-65.339844c0-17.367188-14.132812-31.5-31.5-31.5h-45c-17.367188 0-31.5 14.132812-31.5 31.5zm0 0" fill="#495663"/><path d="m278.5 7.5h-30c33.367188 0 60.59375 26.71875 61.460938 59.882812.023437.535157.039062 1.074219.039062 1.617188v80.339844c0 8.285156-6.714844 15-15 15h30c8.285156 0 15-6.714844 15-15v-80.339844c0-33.910156-27.589844-61.5-61.5-61.5zm0 0" fill="#3a444f"/><path d="m354.417969 504.5h-196.835938c-35.9375 0-65.074219-29.136719-65.074219-65.074219v-214.847656c0-72.386719 58.683594-131.070313 131.070313-131.070313h64.84375c72.386719 0 131.070313 58.683594 131.070313 131.070313v214.847656c0 35.9375-29.136719 65.074219-65.074219 65.074219zm0 0" fill="#5994ce"/><path d="m288.421875 93.507812h-42.636719c72.390625 0 131.074219 58.683594 131.074219 131.070313v214.847656c0 35.9375-29.136719 65.074219-65.074219 65.074219h42.632813c35.9375 0 65.074219-29.136719 65.074219-65.074219v-214.847656c0-72.386719-58.683594-131.070313-131.070313-131.070313zm0 0" fill="#4c7eb0"/><path d="m92.507812 422.507812h-29.371093c-22.507813 0-40.753907-18.246093-40.753907-40.753906v-50.53125c0-11.578125 7.140626-21.953125 17.953126-26.089844l52.171874-19.957031zm0 0" fill="#f6d867"/><path d="m70.628906 422.507812h21.878906v-137.332031l-21.878906 8.367188zm0 0" fill="#dec35d"/><path d="m419.492188 422.507812h29.371093c22.507813 0 40.753907-18.246093 40.753907-40.753906v-50.53125c0-11.578125-7.140626-21.953125-17.953126-26.089844l-52.171874-19.957031zm0 0" fill="#f6d867"/><path d="m471.664062 305.132812-52.171874-19.957031v1.796875l29.171874 11.160156c10.8125 4.136719 17.953126 14.511719 17.953126 26.089844v50.53125c0 22.507813-18.246094 40.753906-40.753907 40.753906h-6.371093v7h29.371093c22.507813 0 40.753907-18.246093 40.753907-40.753906v-50.53125c0-11.578125-7.140626-21.953125-17.953126-26.089844zm0 0" fill="#dec35d"/><path d="m349 504.5h-186v-160.660156c0-51.359375 41.636719-93 93-93s93 41.636718 93 93zm0 0" fill="#f6d867"/><path d="m256 250.839844c-5.984375 0-11.832031.574218-17.5 1.652344 42.996094 8.1875 75.5 45.96875 75.5 91.347656v160.660156h35v-160.660156c0-51.363282-41.636719-93-93-93zm0 0" fill="#dec35d"/><path d="m221.125 408.667969h-21.917969c-7.050781 0-12.277343-6.546875-10.71875-13.421875l6.84375-30.15625h29.667969l6.84375 30.15625c1.558594 6.875-3.667969 13.421875-10.71875 13.421875zm0 0" fill="#495663"/><path d="m298.632812 170.925781c0 23.542969-19.085937 42.632813-42.632812 42.632813s-42.632812-19.089844-42.632812-42.632813c0-23.546875 19.085937-42.636719 42.632812-42.636719s42.632812 19.089844 42.632812 42.636719zm0 0" fill="#f6d867"/><path d="m256 128.289062c-4.144531 0-8.148438.605469-11.941406 1.707032 17.734375 5.167968 30.695312 21.527344 30.695312 40.929687 0 19.398438-12.960937 35.757813-30.695312 40.925781 3.792968 1.101563 7.792968 1.707032 11.941406 1.707032 23.546875 0 42.632812-19.089844 42.632812-42.632813 0-23.546875-19.085937-42.636719-42.632812-42.636719zm0 0" fill="#dec35d"/><path d="m504.5 328.167969h-7.515625c-1.175781-13.359375-9.976563-25.195313-22.640625-30.039063l-47.351562-18.117187v-55.433594c0-55.289063-32.550782-103.117187-79.492188-125.335937v-30.242188c0-38.046875-30.953125-69-69-69h-45c-38.046875 0-69 30.953125-69 69v30.242188c-46.941406 22.21875-79.492188 70.046874-79.492188 125.335937v55.433594l-47.351562 18.117187c-12.664062 4.84375-21.464844 16.679688-22.640625 30.039063h-7.515625c-4.140625 0-7.5 3.355469-7.5 7.5 0 4.140625 3.359375 7.5 7.5 7.5h7.382812v38.585937c0 26.605469 21.644532 48.253906 48.253907 48.253906h21.871093v9.417969c0 40.015625 32.558594 72.574219 72.574219 72.574219h196.832031c40.019532 0 72.578126-32.558594 72.578126-72.574219v-9.417969h21.871093c26.605469 0 48.253907-21.648437 48.253907-48.253906v-38.585937h7.382812c4.140625 0 7.5-3.359375 7.5-7.5 0-4.144531-3.359375-7.5-7.5-7.5zm-35.515625-16.03125c6.890625 2.636719 11.796875 8.863281 12.898437 16.027343h-54.890624v-32.089843zm-229.40625-282.136719h-6.078125c-21.503906 0-39 17.496094-39 39v20.074219c-5.074219 1.085937-10.085938 2.457031-15 4.101562v-24.175781c0-29.777344 24.222656-54 54-54h45c29.777344 0 54 24.222656 54 54v24.175781c-4.914062-1.644531-9.925781-3.015625-15-4.101562v-20.074219c0-21.503906-17.496094-39-39-39h-10.921875c-4.140625 0-7.5 3.359375-7.5 7.5s3.359375 7.5 7.5 7.5h10.921875c13.234375 0 24 10.765625 24 24v17.71875c-12.003906-1.21875-16.050781-.507812-78.921875-.710938-4.75 0-9.449219.238282-14.078125.710938v-17.71875c0-13.234375 10.765625-24 24-24h6.078125c4.140625 0 7.5-3.359375 7.5-7.5s-3.359375-7.5-7.5-7.5zm-196.5625 282.136719 41.992187-16.0625v32.089843h-54.890624c1.101562-7.164062 6.007812-13.390624 12.898437-16.027343zm20.121094 102.871093c-18.335938 0-33.253907-14.917968-33.253907-33.253906v-38.585937h55.125v71.839843zm161.390625-18.101562c.496094 2.183594-1.160156 4.261719-3.402344 4.261719h-21.917969c-2.238281 0-3.898437-2.074219-3.402343-4.261719l5.519531-24.316406h17.6875zm-54.027344-39.316406v-13.75c0-47.144532 38.355469-85.5 85.5-85.5s85.5 38.355468 85.5 85.5v13.75zm241.492188 81.835937c0 31.050781-24.707032 56.4375-55.492188 57.539063v-153.125c0-55.414063-45.085938-100.5-100.5-100.5s-100.5 45.085937-100.5 100.5v87.75c0 4.144531 3.359375 7.5 7.5 7.5s7.5-3.355469 7.5-7.5v-59h15.441406l-4.765625 20.996094c-2.621093 11.558593 6.15625 22.582031 18.03125 22.582031h21.917969c11.875 0 20.652344-11.023438 18.03125-22.582031l-4.765625-20.996094h107.109375v124.410156h-171v-37.410156c0-4.140625-3.359375-7.5-7.5-7.5s-7.5 3.359375-7.5 7.5v37.375c-30.785156-1.101563-55.492188-26.488282-55.492188-57.539063v-214.847656c0-55.96875 38.148438-109.609375 103.382813-121.921875 16.617187-2.742188 23.960937-1.210938 85.03125-1.648438 67.828125 0 123.570313 55.125 123.570313 123.570313zm70.125-57.671875c0 18.335938-14.917969 33.253906-33.253907 33.253906h-21.871093v-71.84375h55.125zm0 0"/><path d="m256 120.789062c-27.644531 0-50.132812 22.492188-50.132812 50.136719 0 27.640625 22.488281 50.132813 50.132812 50.132813s50.132812-22.492188 50.132812-50.132813c0-27.644531-22.488281-50.136719-50.132812-50.136719zm0 85.269532c-19.371094 0-35.132812-15.761719-35.132812-35.132813 0-19.375 15.761718-35.136719 35.132812-35.136719s35.132812 15.761719 35.132812 35.136719c0 19.371094-15.761718 35.132813-35.132812 35.132813zm0 0"/></svg>