<svg id="Capa_1" enable-background="new 0 0 511.827 511.827" height="512" viewBox="0 0 511.827 511.827" width="512" xmlns="http://www.w3.org/2000/svg"><g><g><path d="m397.796 452.72h-283.843c-18.58 0-33.642-15.062-33.642-33.642v-231.159c0-15.316 8.745-29.287 22.522-35.979l158.887-77.187 148.223 76.93c13.255 6.879 21.573 20.569 21.573 35.503v231.813c0 18.624-15.097 33.721-33.72 33.721z" fill="#f6a96c"/><path d="m361.658 504.327h-211.453c-8.022 0-14.524-6.503-14.524-14.524v-37.083h240.502v37.083c-.001 8.021-6.503 14.524-14.525 14.524z" fill="#fff3de"/><path d="m409.943 151.683-27.895-14.478-120.328-62.452-89.231 43.347c2.115 3.28 4.611 6.39 7.491 9.27l87.222 87.222c10.344 10.344 27.114 10.344 37.458 0l60.647-60.647c3.864-3.864 9.785-4.779 14.635-2.262 13.255 6.879 21.573 20.569 21.573 35.503v231.814c0 18.623-15.097 33.72-33.72 33.72h30c18.623 0 33.72-15.097 33.72-33.72v-231.813c.001-14.934-8.317-28.624-21.572-35.504z" fill="#ea9b58"/><path d="m346.182 452.72c0 20.218-16.39 36.607-36.607 36.607h-173.894v.476c0 8.022 6.503 14.524 14.524 14.524h211.453c8.022 0 14.524-6.503 14.524-14.524v-37.083z" fill="#ffe5c2"/><path d="m233.432 199.071h45v253.649h-45z" fill="#ffbd86"/><path d="m278.432 199.071h-45v26.751l3.771 3.771c10.344 10.344 27.114 10.344 37.458 0l3.771-3.771z" fill="#ffac73"/><path d="m358.716 45.49c24.711 21.157 26.17 58.877 3.167 81.88l-87.222 87.222c-10.344 10.344-27.114 10.344-37.458 0l-87.223-87.222c-23.003-23.003-21.544-60.723 3.167-81.88 59.162-50.653 146.407-50.653 205.569 0z" fill="#fff3de"/><path d="m185.445 91.931c-1.015-1.015-1.64-2.377-1.677-3.812-.047-1.845.624-3.376 1.987-4.544 19.537-16.727 44.459-25.939 70.177-25.939s50.641 9.212 70.176 25.938c1.364 1.169 2.035 2.7 1.988 4.545-.037 1.435-.662 2.797-1.677 3.812l-66.233 66.232c-2.35 2.35-6.159 2.35-8.508 0z" fill="#5a5a5a"/><path d="m363.885 398.461v54.259h33.911c18.623 0 33.72-15.097 33.72-33.72v-20.539z" fill="#fff3de"/><path d="m401.516 419c0 18.623-15.097 33.72-33.72 33.72h30c18.623 0 33.72-15.097 33.72-33.72v-20.539h-30z" fill="#ffe5c2"/><path d="m113.953 452.72h33.989v-54.259h-67.632v20.617c0 18.58 15.063 33.642 33.643 33.642z" fill="#fff3de"/></g><path d="m255.932 167.419c3.461 0 6.923-1.318 9.557-3.952l26.487-26.486c2.93-2.93 2.93-7.678.001-10.606s-7.678-2.93-10.606-.001l-25.438 25.438-63.799-63.798c17.945-14.766 40.523-22.876 63.799-22.876 23.278 0 45.856 8.11 63.799 22.876l-21.61 21.609c-2.929 2.93-2.929 7.678 0 10.607 2.93 2.928 7.678 2.928 10.607 0l22.995-22.995c2.412-2.412 3.786-5.582 3.871-8.925.104-4.091-1.531-7.795-4.607-10.433-20.895-17.889-47.55-27.74-75.055-27.74s-54.16 9.852-75.06 27.744c-3.071 2.634-4.706 6.338-4.602 10.432.086 3.344 1.461 6.512 3.87 8.922l66.233 66.232c2.636 2.635 6.096 3.952 9.558 3.952zm157.466-22.393-39.397-20.448c8.031-11.321 12.228-25.106 11.686-39.13-.68-17.575-8.732-34.216-22.093-45.655-29.972-25.661-68.207-39.793-107.662-39.793s-77.69 14.132-107.662 39.793c-13.36 11.439-21.413 28.08-22.093 45.655-.566 14.642 4.035 29.021 12.771 40.608l-39.394 19.137c-16.246 7.893-26.744 24.663-26.744 42.726v169.239c0 4.143 3.357 7.5 7.5 7.5s7.5-3.357 7.5-7.5v-169.239c0-12.358 7.183-23.833 18.299-29.233l43.465-21.115 76.358 76.359v231.29h-70.489v-191.192c0-4.143-3.357-7.5-7.5-7.5s-7.5 3.357-7.5 7.5v136.933h-52.632v-3.803c0-4.143-3.357-7.5-7.5-7.5s-7.5 3.357-7.5 7.5v31.919c0 22.687 18.456 41.143 41.142 41.143h14.229v29.583c0 12.145 9.88 22.024 22.024 22.024h211.453c12.145 0 22.024-9.88 22.024-22.024v-29.583h14.113c.032 0 .064-.004.096-.005 22.694-.104 41.125-18.522 41.125-41.151v-231.877c0-17.804-9.817-33.958-25.619-42.161zm-272.956 300.194h-26.49c-14.414 0-26.142-11.728-26.142-26.143v-13.116h52.632zm14.842-323.154c-9.631-9.63-14.645-22.429-14.118-36.039.526-13.609 6.514-25.982 16.859-34.84 27.256-23.335 62.027-36.187 97.907-36.187s70.65 12.852 97.906 36.188c10.346 8.857 16.333 21.23 16.859 34.84s-4.487 26.409-14.118 36.039l-83.446 83.447-3.776 3.776c-7.401 7.402-19.448 7.403-26.852 0l-3.776-3.776zm115.648 104.305v218.849h-30v-218.849c4.61 2.271 9.711 3.479 15 3.479s10.39-1.207 15-3.479zm97.751 263.432c0 3.873-3.151 7.024-7.024 7.024h-211.454c-3.873 0-7.024-3.151-7.024-7.024v-29.583h225.502zm55.334-70.74c0 14.423-11.806 26.156-26.316 26.156h-26.315v-39.259h52.632v13.103zm0-28.102h-52.632v-141.864c0-4.143-3.357-7.5-7.5-7.5s-7.5 3.357-7.5 7.5v196.123h-70.453v-231.29l77.787-77.788 42.77 22.199c10.812 5.611 17.528 16.664 17.528 28.846z"/></g></svg>